PathFileType	4	(X/Y/Z)	D:\TRACE\v60_Jaco2_6-2-23\BothDRS_Motion2_4-platform.trc
DataRate	CameraRate	NumFrames	NumMarkers	Units	OrigDataRate	OrigDataStartFrame	OrigNumFrames
100.00	100.00	      54	5	mm	100.00	5626	      7500
Frame#	Time	Left_Front			Right_Front			Left_Aft			Right_Aft			Post			
		X1	Y1	Z1	X2	Y2	Z2	X3	Y3	Z3	X4	Y4	Z4	X5	Y5	Z5	

5626	56.250	-778.97479	64.61214	-623.15308	790.85681	65.36656	-628.55109	-687.26306	-30.61768	507.87531	755.36841	-33.25666	517.05151	7.81698	1385.34583	-835.69934	
5627	56.260	-779.90314	63.67267	-623.28204	789.99487	64.41645	-628.83643	-688.08130	-30.63952	507.71964	754.14807	-32.65984	516.89044	6.74833	1384.42603	-837.83807	
5628	56.270	-781.29413	63.00983	-623.85101	788.98181	63.46043	-629.12012	-688.79517	-30.32662	507.64410	752.97308	-32.25202	516.79492	5.51415	1383.34790	-840.04547	
5629	56.280	-782.35150	62.46523	-624.10181	787.75165	62.78778	-629.40015	-689.87921	-29.87601	507.48514	751.90509	-31.83029	516.61230	4.62756	1382.48657	-842.35846	
5630	56.290	-783.01184	61.78490	-624.29095	786.67279	62.05384	-629.48138	-691.07477	-29.07716	507.32385	750.88208	-31.33666	516.50024	3.83614	1381.31970	-844.77716	
5631	56.300	-784.00476	60.66094	-624.05145	785.93268	61.38496	-629.67291	-692.11676	-28.32483	507.22729	750.21869	-30.59554	516.27869	2.49359	1380.35730	-846.75586	
5632	56.310	-785.47113	59.81853	-624.58289	784.83490	60.49615	-629.98584	-693.66101	-27.30174	507.49731	749.14532	-29.90902	516.08295	1.39465	1379.19519	-848.50989	
5633	56.320	-786.26697	59.14801	-625.19220	784.03204	59.73768	-630.22937	-694.36444	-26.99296	506.97369	747.78082	-29.16958	516.07172	0.76849	1378.17444	-850.13770	
5634	56.330	-787.13580	58.02298	-625.32251	782.80450	58.57703	-630.58771	-695.18652	-26.44347	506.69608	746.81213	-28.71349	515.96198	-0.44539	1377.01538	-851.42554	
5635	56.340	-788.08734	57.20945	-625.56781	781.70416	57.55539	-630.89526	-696.41339	-25.80000	506.70694	745.89734	-28.08401	515.72711	-1.54669	1375.42151	-853.10492	
5636	56.350	-789.69141	56.16211	-625.93066	780.51471	56.57709	-631.27075	-697.38257	-25.57191	506.50189	744.70905	-27.31648	515.47784	-3.08612	1374.15186	-854.76520	
5637	56.360	-790.66156	55.23512	-626.06903	779.62402	55.81189	-631.31744	-698.50995	-24.52478	506.13153	743.14075	-26.51778	515.35938	-3.93772	1373.05713	-856.92993	
5638	56.370	-791.60687	54.23874	-626.37378	778.25403	54.80669	-631.90259	-699.41528	-23.67812	506.04413	742.45789	-25.60903	515.03967	-4.96400	1371.32898	-859.66418	
5639	56.380	-792.54578	53.18370	-626.98462	777.23090	53.75761	-632.24799	-700.64960	-22.99528	505.57092	741.21625	-25.03450	514.79608	-5.86094	1369.84167	-862.49078	
5640	56.390	-793.98254	51.92816	-627.07166	776.24231	52.55186	-632.55621	-701.83923	-22.30776	505.43234	740.27271	-24.42216	514.44873	-6.85335	1368.46143	-865.27789	
5641	56.400	-794.90045	50.90934	-627.49463	774.98956	51.25144	-632.87872	-703.00214	-21.23236	505.08664	739.05139	-23.63790	514.24670	-8.27685	1367.03430	-868.51208	
5642	56.410	-795.96442	49.91252	-627.75574	774.09570	50.28765	-632.90228	-704.10938	-20.53768	505.08997	737.84088	-22.81899	513.82391	-9.40886	1365.48523	-871.81396	
5643	56.420	-797.17413	48.53759	-628.17804	772.84729	49.30672	-633.44556	-705.14569	-19.73106	504.84122	736.98584	-21.98684	513.25464	-10.44293	1364.16443	-874.98663	
5644	56.430	-798.40387	47.56139	-628.28400	771.98224	48.26216	-633.77948	-706.21594	-18.92644	504.72235	735.68719	-20.99013	513.49493	-11.00015	1362.50964	-877.62701	
5645	56.440	-799.36139	46.55937	-628.88513	770.66486	47.02405	-634.01764	-707.26331	-18.15547	504.49307	734.90454	-19.91522	513.34357	-12.30952	1361.03271	-880.10291	
5646	56.450	-800.58508	45.30323	-629.24579	769.44635	45.70388	-634.46405	-708.53888	-17.32281	504.34726	733.50964	-19.26299	513.05536	-13.87812	1359.52344	-882.31061	
5647	56.460	-801.61554	43.79781	-629.53973	768.38000	44.65783	-634.79974	-709.62457	-16.54449	504.13379	732.57135	-18.16781	512.98584	-15.18298	1357.74304	-884.59241	
5648	56.470	-802.93243	42.91579	-629.75916	767.30920	43.45125	-634.98254	-710.56567	-15.40154	504.06207	731.01416	-17.63811	512.70361	-16.12500	1356.21240	-886.82825	
5649	56.480	-804.11841	41.86973	-630.00043	766.08588	42.30249	-635.47809	-711.82080	-14.72103	503.75763	730.11407	-16.76218	512.50348	-17.27433	1354.42175	-888.74994	
5650	56.490	-805.12274	40.20919	-630.55536	764.97803	41.07516	-635.82507	-712.93323	-13.77393	503.40051	729.00952	-15.78775	512.14319	-18.74877	1352.75513	-890.88165	
5651	56.500	-806.25940	38.83281	-630.87451	763.70056	39.91089	-636.27856	-714.00073	-12.83714	503.03973	727.98517	-14.90666	512.55072	-19.73612	1350.83594	-893.31793	
5652	56.510	-807.27051	38.04846	-631.47736	762.49390	39.23704	-636.68658	-715.39264	-11.96129	502.72278	726.94458	-13.70163	512.36609	-20.63112	1348.70508	-896.41711	
5653	56.520	-808.66290	36.54010	-631.58868	761.72870	37.44345	-637.06042	-716.41254	-11.04041	502.49609	725.71838	-12.73767	511.84930	-22.37448	1346.84973	-900.21729	
5654	56.530	-809.62024	34.94344	-632.05328	760.34753	35.65062	-637.37701	-717.66254	-9.91217	502.04987	724.69952	-11.75177	510.97610	-22.70426	1344.88074	-904.02808	
5655	56.540	-810.72382	33.36652	-632.55707	759.34363	34.50492	-637.86011	-718.63269	-8.89530	501.81003	723.47986	-10.49555	511.06705	-24.27918	1342.64111	-908.17346	
5656	56.550	-811.95953	31.64805	-632.80420	758.29401	33.03896	-638.12878	-719.78168	-8.03835	501.44931	722.64478	-9.61669	510.91098	-25.11756	1340.82312	-911.97046	
5657	56.560	-812.94763	30.49494	-633.08636	756.96619	31.70136	-638.53552	-721.11597	-6.91233	501.10934	720.90814	-8.57917	510.68985	-26.24286	1339.02100	-916.47705	
5658	56.570	-814.27258	29.45979	-633.66779	755.85211	30.02664	-639.16797	-722.03442	-6.30853	500.98532	720.19586	-7.53020	510.42358	-27.44253	1337.14111	-919.85736	
5659	56.580	-815.26398	28.15677	-633.73297	754.81470	29.21350	-639.18872	-723.34894	-5.13576	500.72449	718.72113	-6.74486	510.21481	-28.66405	1335.54688	-923.66791	
5660	56.590	-816.37402	26.57599	-634.15265	753.63092	27.80585	-639.47351	-724.17444	-4.09948	500.55374	718.04858	-5.60950	509.87494	-29.63524	1333.65002	-927.39441	
5661	56.600	-817.82367	25.51019	-634.59735	752.58234	26.39070	-640.00092	-725.77942	-2.97687	499.82983	716.87598	-4.73498	509.56430	-30.17553	1331.67651	-930.27991	
5662	56.610	-818.64752	24.16557	-634.94550	751.53375	25.23512	-640.40765	-726.61731	-2.67891	499.91751	715.54742	-3.94539	509.15988	-31.44557	1329.85352	-932.83502	
5663	56.620	-819.67017	22.78058	-635.38977	750.13599	23.78978	-640.69092	-727.50916	-1.88185	499.61575	714.72131	-2.81589	508.82050	-32.94847	1328.19202	-935.72003	
5664	56.630	-820.81738	21.53632	-635.64966	749.00781	22.48864	-641.00421	-728.77905	-0.78217	499.30219	713.18488	-1.82474	508.75641	-34.21879	1326.22986	-938.07654	
5665	56.640	-821.88385	20.05893	-635.81152	748.13824	21.20492	-641.24908	-729.80804	0.25530	499.09592	712.29321	-0.77013	508.53488	-35.35479	1324.17139	-940.18329	
5666	56.650	-823.28296	18.75718	-636.10150	746.94421	19.74257	-641.54089	-731.06580	1.33073	498.50739	711.19446	0.28388	508.13757	-36.43634	1321.92798	-942.32318	
5667	56.660	-824.10931	17.00267	-636.79730	746.02759	18.27752	-642.19012	-731.95563	2.19150	498.30106	710.17365	1.16177	507.72131	-37.81966	1319.71472	-944.37817	
5668	56.670	-825.02716	15.49232	-637.13995	744.79651	16.44762	-642.42236	-732.85974	3.20897	497.97122	709.17316	2.34177	507.25491	-39.02519	1317.36694	-946.02582	
5669	56.680	-826.15125	14.09853	-637.45129	743.75995	15.24138	-642.67139	-734.10431	4.33344	497.62393	708.11578	3.44147	507.00589	-40.19858	1315.60413	-948.54126	
5670	56.690	-827.49506	12.77202	-637.60535	742.84717	13.92627	-643.15997	-735.13513	5.32674	497.35687	707.14850	4.57793	506.75287	-41.00141	1313.40222	-951.28070	
5671	56.700	-828.55939	11.26988	-637.94855	741.58911	12.51479	-643.46698	-736.11206	6.38418	496.87091	705.98370	5.51316	506.38129	-42.00091	1311.12305	-954.90991	
5672	56.710	-829.45264	9.98926	-638.47528	740.76135	11.07832	-643.56586	-737.24280	7.28439	496.63367	704.81000	6.40309	506.24173	-43.32929	1309.14307	-959.22675	
5673	56.720	-830.25854	8.53524	-638.94647	739.68250	9.54297	-644.23853	-738.51221	8.71090	496.12231	703.88855	7.32136	505.67181	-43.82685	1307.02527	-963.39801	
5674	56.730	-831.41040	6.86090	-639.07434	738.56604	8.18083	-644.38153	-739.37903	9.08195	496.00882	702.90698	8.35458	505.41348	-45.41958	1305.05310	-967.54218	
5675	56.740	-832.47296	5.88587	-639.42773	737.51868	6.76804	-644.73187	-740.40405	10.27852	495.78076	702.18451	9.33575	505.17822	-45.85635	1303.04089	-971.61847	
5676	56.750	-833.51318	4.75422	-639.67096	736.69855	5.62790	-645.12201	-741.10730	11.16015	495.48288	701.09637	10.24346	504.88428	-46.89657	1301.14331	-975.17023	
5677	56.760	-834.37891	3.01968	-639.81647	735.76324	4.29291	-645.49738	-742.30939	12.29269	495.12933	700.23572	11.24442	504.52057	-48.16678	1299.22009	-978.89105	
5678	56.770	-835.37451	1.58828	-640.28552	734.92822	2.84116	-645.51404	-743.25415	13.09978	494.71848	699.17523	12.16527	504.01248	-48.78931	1297.00110	-982.52667	
5679	56.780	-836.03650	0.43901	-641.09375	733.86523	1.43017	-646.00476	-744.13287	14.11193	494.50061	697.80719	13.20016	503.94574	-49.67349	1294.76526	-985.47723	
